<?xml version="1.0" standalone="no"?>
<!DOCTYPE svg PUBLIC "-//W3C//DTD SVG 20010904//EN"
 "http://www.w3.org/TR/2001/REC-SVG-20010904/DTD/svg10.dtd">
<svg version="1.0" xmlns="http://www.w3.org/2000/svg"
 width="1280.000000pt" height="640.000000pt" viewBox="0 0 1280.000000 640.000000"
 preserveAspectRatio="xMidYMid meet">
<metadata>
Created by potrace 1.15, written by Peter Selinger 2001-2017
</metadata>
<g transform="translate(0.000000,640.000000) scale(0.100000,-0.100000)"
fill="#000000" stroke="none">
<path d="M3707 6063 c-4 -3 -7 -834 -7 -1845 l0 -1839 -22 3 -23 3 -5 1245
c-4 867 -9 1254 -16 1275 -36 99 -94 171 -175 216 -100 56 -60 54 -1141 50
l-998 -4 0 22 c0 21 -1 21 -227 19 -206 -3 -226 -5 -229 -20 -1 -10 4 -18 12
-18 27 0 5 -18 -44 -35 -26 -9 -74 -20 -107 -25 -70 -9 -230 -80 -321 -143
-54 -37 -149 -147 -127 -147 4 0 59 10 121 21 62 12 115 20 118 17 5 -6 -34
-106 -263 -672 -80 -197 -141 -361 -137 -365 5 -3 8 -315 6 -692 l-2 -686 -51
-5 c-28 -3 -55 -12 -60 -19 -5 -8 -9 -184 -9 -391 0 -329 2 -379 16 -392 11
-12 36 -16 93 -16 103 0 114 9 119 94 4 61 7 68 32 81 15 8 66 68 115 134 l87
121 49 0 49 0 -65 -82 c-114 -144 -171 -274 -205 -462 -24 -131 -25 -191 -5
-311 31 -194 88 -331 193 -470 120 -160 333 -303 512 -345 142 -33 325 -25
460 20 80 26 204 96 287 162 395 313 480 914 190 1343 -23 33 -59 79 -80 102
l-40 43 29 -1 c24 0 46 -20 133 -120 l104 -119 48 0 49 0 0 -280 0 -280 31 0
c20 0 44 -11 69 -32 34 -29 40 -38 40 -75 0 -36 5 -46 37 -72 l38 -31 179 0
180 0 28 27 c23 22 28 36 28 72 0 41 5 49 40 78 31 27 47 33 84 33 l46 0 0
280 0 280 74 0 74 0 4 -218 3 -217 30 -54 c36 -65 75 -96 157 -124 62 -22 74
-22 933 -25 948 -4 973 -3 1081 51 54 26 65 37 85 79 l22 48 1427 0 1427 0 12
-97 c34 -282 142 -502 325 -662 206 -180 441 -257 686 -225 420 54 754 409
805 854 3 30 8 72 11 93 l6 37 154 0 c91 0 153 -4 150 -9 -8 -12 20 -221 39
-296 38 -151 172 -366 286 -465 192 -163 373 -234 594 -233 140 0 235 22 352
78 209 102 362 256 462 466 74 153 112 366 92 517 -6 49 -11 198 -11 333 l0
244 47 -70 c61 -91 128 -261 155 -397 12 -59 25 -108 28 -107 3 0 76 96 163
213 l157 213 0 172 0 171 -120 0 -120 0 0 1945 0 1945 -4423 0 c-2433 0 -4427
-3 -4430 -7z m8841 -1940 l-3 -1938 -2 1933 -3 1932 -4408 -2 -4407 -3 -5
-1830 -5 -1830 -3 1838 -2 1837 4420 0 4420 0 -2 -1937z m-9892 -2904 c21 -20
45 -32 73 -36 37 -5 41 -8 41 -35 0 -16 -5 -38 -10 -49 -10 -18 -23 -19 -192
-19 -203 0 -218 5 -218 65 0 30 3 33 38 39 24 3 49 17 67 36 27 28 34 30 99
30 65 0 72 -2 102 -31z"/>
</g>
</svg>
